<svg xmlns="http://www.w3.org/2000/svg" xmlns:xlink="http://www.w3.org/1999/xlink" viewBox="0 0 32 32">
  <defs>
    <style>
      .cls-1 {
        fill: url(#linear-gradient);
      }

      .cls-2 {
        fill: #fff;
      }
    </style>
    <linearGradient id="linear-gradient" x1="0.5" x2="0.5" y2="1" gradientUnits="objectBoundingBox">
      <stop offset="0" stop-color="#34c560"/>
      <stop offset="1" stop-color="#138a7a"/>
    </linearGradient>
  </defs>
  <g id="Symbol_48_2" data-name="Symbol 48 – 2" transform="translate(-16 -360)">
    <circle id="Ellipse_11" data-name="Ellipse 11" class="cls-1" cx="16" cy="16" r="16" transform="translate(16 360)"/>
    <g id="shining" transform="translate(23 332.398)">
      <g id="Group_1064" data-name="Group 1064" transform="translate(3.216 45.687)">
        <g id="Group_1063" data-name="Group 1063" transform="translate(0 0)">
          <path id="Path_266" data-name="Path 266" class="cls-2" d="M92.74,308.276A3.24,3.24,0,0,1,91.2,308a.278.278,0,0,0-.264.49q.087.047.174.085a2.433,2.433,0,0,0-1.295,1.365,2.469,2.469,0,0,0-1.3-1.366,2.471,2.471,0,0,0,1.3-1.366c.053.132.1.223.1.227a.278.278,0,0,0,.5-.253,2.984,2.984,0,0,1-.3-1.437.3.3,0,0,0-.249-.336.307.307,0,0,0-.353.233,2.671,2.671,0,0,1-.967,2.287,3.071,3.071,0,0,1-1.667.346.307.307,0,0,0,0,.6,3.057,3.057,0,0,1,1.681.355,2.6,2.6,0,0,1,.946,2.216.306.306,0,0,0,.6.086,2.778,2.778,0,0,1,.924-2.279,2.889,2.889,0,0,1,1.685-.374A.307.307,0,0,0,92.74,308.276Z" transform="translate(-86.643 -305.405)"/>
        </g>
      </g>
      <g id="Group_1066" data-name="Group 1066" transform="translate(4.958 36.447)">
        <g id="Group_1065" data-name="Group 1065" transform="translate(0 0)">
          <path id="Path_267" data-name="Path 267" class="cls-2" d="M147.346,63.078c-.509-.057-4.136.453-5.722-2.876a7.9,7.9,0,0,1-.665-3.537.344.344,0,0,0-.679.062v.722c-.126,2.483-1.256,4.6-3.629,5.341a9.119,9.119,0,0,1-2.782.293.345.345,0,0,0,0,.673,6.685,6.685,0,0,1,4.461,1.194.278.278,0,1,0,.356-.428,5.556,5.556,0,0,0-2.223-1.1A5.551,5.551,0,0,0,140.624,59a5.532,5.532,0,0,0,4.164,4.416,5.54,5.54,0,0,0-4.167,4.407,6.566,6.566,0,0,0-1-2.295.278.278,0,0,0-.455.321,5.362,5.362,0,0,1,.457.784,7.8,7.8,0,0,1,.659,3.495.344.344,0,1,0,.684-.077c-.038-.923.033-4.05,2.559-5.533a7.4,7.4,0,0,1,3.853-.765A.345.345,0,0,0,147.346,63.078Z" transform="translate(-133.602 -56.398)"/>
        </g>
      </g>
      <g id="Group_1068" data-name="Group 1068" transform="translate(0 35.678)">
        <g id="Group_1067" data-name="Group 1067" transform="translate(0 0)">
          <path id="Path_268" data-name="Path 268" class="cls-2" d="M6.1,38.549a2.331,2.331,0,0,1-2.338-1.115,3.143,3.143,0,0,1-.286-1.414.3.3,0,0,0-.249-.336.306.306,0,0,0-.353.233A2.671,2.671,0,0,1,1.9,38.2a2.913,2.913,0,0,1-1.636.341.307.307,0,0,0-.031.6,3.049,3.049,0,0,1,1.681.355,2.385,2.385,0,0,1,.946,1.91,1.605,1.605,0,0,0,.013.391.307.307,0,0,0,.594-.037,3.4,3.4,0,0,1,.3-1.519.278.278,0,0,0-.5-.25q-.053.1-.1.217a2.469,2.469,0,0,0-1.3-1.367,2.471,2.471,0,0,0,1.3-1.366A2.444,2.444,0,0,0,4.466,38.85q-.091.04-.182.089a.278.278,0,0,0,.265.49,3.1,3.1,0,0,1,1.523-.275A.307.307,0,0,0,6.1,38.549Z" transform="translate(0 -35.678)"/>
        </g>
      </g>
    </g>
  </g>
</svg>
