<svg xmlns="http://www.w3.org/2000/svg" xmlns:xlink="http://www.w3.org/1999/xlink" viewBox="0 0 32 32">
  <defs>
    <style>
      .cls-1 {
        fill: url(#linear-gradient);
      }

      .cls-2 {
        fill: #fff;
      }
    </style>
    <linearGradient id="linear-gradient" x1="0.5" x2="0.5" y2="1" gradientUnits="objectBoundingBox">
      <stop offset="0" stop-color="#dc429e"/>
      <stop offset="1" stop-color="#6e1692"/>
    </linearGradient>
  </defs>
  <g id="Symbol_49_2" data-name="Symbol 49 – 2" transform="translate(-64 -480)">
    <circle id="Ellipse_12" data-name="Ellipse 12" class="cls-1" cx="16" cy="16" r="16" transform="translate(64 480)"/>
    <g id="handshake" transform="translate(70 405.813)">
      <g id="Group_1062" data-name="Group 1062" transform="translate(0 83.528)">
        <path id="Path_264" data-name="Path 264" class="cls-2" d="M.041,90.356a.4.4,0,0,0,.233.2l2.556.878a.364.364,0,0,0,.131.02.407.407,0,0,0,.384-.274l2-5.85.1.037a2.073,2.073,0,0,0,1.592-.09l.249-.122a1.252,1.252,0,0,1,.955-.057l4.662,1.608a.9.9,0,0,1-.306.5.963.963,0,0,1-.857,0L9.655,86.5a.4.4,0,0,0-.323.029.413.413,0,0,0-.2.253,2.784,2.784,0,0,1-1.2,1.576,2.616,2.616,0,0,1-2.123.029.405.405,0,0,0-.261.768,4.317,4.317,0,0,0,1.388.253,2.893,2.893,0,0,0,1.384-.339A3.4,3.4,0,0,0,9.765,87.4l1.715.588a1.705,1.705,0,0,0,1.58-.1,1.91,1.91,0,0,0,.7-1.425.413.413,0,0,0-.274-.4L8.5,84.342a2.07,2.07,0,0,0-1.576.1l-.249.122a1.264,1.264,0,0,1-.968.057L5.3,84.473a.271.271,0,0,0-.078-.037L2.678,83.55a.4.4,0,0,0-.514.253L.02,90.049A.42.42,0,0,0,.041,90.356ZM2.8,84.444l1.788.612L2.711,90.539.922,89.927Z" transform="translate(0 -83.528)"/>
        <path id="Path_265" data-name="Path 265" class="cls-2" d="M95.754,94.909a1.184,1.184,0,0,0,1.025.661,1.218,1.218,0,0,0,.118.518,1.165,1.165,0,0,0,.682.6,1.159,1.159,0,0,0,.9-.057l.212-.106a1.225,1.225,0,0,0,.11.367,1.165,1.165,0,0,0,.682.6,1.159,1.159,0,0,0,.9-.057l4.642-2.274a11.952,11.952,0,0,0,2.841-1.939l1.037-.951,2.372-1.159a.4.4,0,0,0,.184-.539l-2.89-5.932a.405.405,0,0,0-.543-.184l-2.425,1.188a.4.4,0,0,0-.184.539l2.768,5.658-.857.788a11.277,11.277,0,0,1-2.65,1.809l-4.642,2.274a.375.375,0,0,1-.29.016.385.385,0,0,1-.216-.192.375.375,0,0,1-.016-.29.384.384,0,0,1,.192-.216l2.6-1.27a.4.4,0,1,0-.355-.723l-2.6,1.27h0l-1.225.6a.375.375,0,0,1-.29.016.385.385,0,0,1-.216-.192.375.375,0,0,1-.016-.29.385.385,0,0,1,.192-.216l3.723-1.821a.4.4,0,0,0-.355-.723l-4.185,2.045a.383.383,0,0,1-.506-.171.375.375,0,0,1-.016-.29.384.384,0,0,1,.192-.216l1.649-.808h0l2.143-1.049a.4.4,0,1,0-.355-.723L96.755,93.1a.378.378,0,1,1-.335-.678l1.772-.865a.4.4,0,1,0-.355-.723l-1.772.865a1.186,1.186,0,0,0-.208,2A1.167,1.167,0,0,0,95.754,94.909Zm10.569-8.716,1.7-.833,2.547,5.205-1.7.833Z" transform="translate(-91.505 -84.379)"/>
      </g>
    </g>
  </g>
</svg>
