<?xml version="1.0" encoding="utf-8"?>
<!-- Generator: Adobe Illustrator 19.0.0, SVG Export Plug-In . SVG Version: 6.00 Build 0)  -->
<svg version="1.1" id="Layer_1" xmlns="http://www.w3.org/2000/svg" xmlns:xlink="http://www.w3.org/1999/xlink" x="0px" y="0px"
	 viewBox="0 0 229.7 46.3" style="enable-background:new 0 0 229.7 46.3;" xml:space="preserve">
<style type="text/css">
	.st0{fill:#44A5DD;}
	.st1{fill:#3DA2DB;}
</style>
<g id="XMLID_2_">
	<g id="XMLID_3_">
		<path id="XMLID_37_" class="st0" d="M23,44.3L8.5,38.4L2.3,24L8.2,9.5l0.1-0.1l14.3-6.1l14.5,5.9l6.1,14.4l-5.9,14.5l-0.1,0.1
			L23,44.3z M9,37.8l14,5.6l13.8-5.9l5.6-14L36.6,9.8l-14-5.6L8.8,10L3.2,24L9,37.8z"/>
		<circle id="XMLID_36_" class="st0" cx="27" cy="13.7" r="1.6"/>
		<circle id="XMLID_35_" class="st0" cx="18.7" cy="13.8" r="1.6"/>
		<circle id="XMLID_34_" class="st0" cx="12.8" cy="19.7" r="1.6"/>
		<circle id="XMLID_33_" class="st0" cx="12.8" cy="27.9" r="1.6"/>
		<circle id="XMLID_32_" class="st0" cx="18.8" cy="33.8" r="1.6"/>
		<circle id="XMLID_31_" class="st0" cx="27" cy="33.8" r="1.6"/>
		<circle id="XMLID_30_" class="st0" cx="33" cy="27.9" r="1.6"/>
		<circle id="XMLID_29_" class="st0" cx="33" cy="19.6" r="1.6"/>
		<circle id="XMLID_28_" class="st0" cx="22.8" cy="23.6" r="3"/>
		<circle id="XMLID_27_" class="st0" cx="37.1" cy="9.6" r="2.6"/>
		<circle id="XMLID_26_" class="st0" cx="42.9" cy="23.7" r="2.6"/>
		<circle id="XMLID_25_" class="st0" cx="37.1" cy="37.9" r="2.6"/>
		<circle id="XMLID_24_" class="st0" cx="23" cy="43.8" r="2.6"/>
		<circle id="XMLID_23_" class="st0" cx="8.8" cy="38.1" r="2.6"/>
		<circle id="XMLID_22_" class="st0" cx="2.7" cy="24" r="2.6"/>
		<circle id="XMLID_21_" class="st0" cx="8.5" cy="9.8" r="2.6"/>
		<circle id="XMLID_20_" class="st0" cx="22.6" cy="3.8" r="2.6"/>
		<polygon id="XMLID_19_" class="st0" points="12.7,19.7 8.2,9.5 18.8,13.6 18.7,13.9 8.8,10.1 13,19.6 		"/>
		<path id="XMLID_16_" class="st0" d="M22.8,24.1l-4.2-10.4l0-0.1L23,3.3l4.3,10.6L22.8,24.1z M19,13.7l3.9,9.6l4.1-9.4l-4-9.7
			L19,13.7z"/>
		<polygon id="XMLID_15_" class="st0" points="33,20 32.7,19.9 36.9,10.2 27.3,14 27.1,13.7 37.5,9.6 		"/>
		<path id="XMLID_12_" class="st0" d="M32.6,28.1L32.6,28.1l-10.2-4.5l10.4-4.2l0.1,0l10.3,4.3L32.6,28.1z M23.2,23.7l9.4,4.1l9.7-4
			l-9.5-4L23.2,23.7z"/>
		<polygon id="XMLID_11_" class="st0" points="37.2,38 26.7,33.7 26.8,33.4 36.6,37.4 32.6,27.9 32.9,27.7 		"/>
		<path id="XMLID_8_" class="st0" d="M22.9,44l-4.4-10.5l4.4-10.2l4.3,10.4L22.9,44z M18.8,33.5l4.1,9.7l3.9-9.6l-3.9-9.5L18.8,33.5
			z"/>
		<polygon id="XMLID_7_" class="st0" points="8.6,38.2 12.8,27.6 13.1,27.8 9.2,37.6 18.7,33.5 18.8,33.8 		"/>
		<path id="XMLID_4_" class="st0" d="M12.9,28L12.9,28L2.5,23.9l10.5-4.6l0.1,0l10.2,4.2L12.9,28z M3.3,23.9l9.6,3.8l9.5-4.1
			l-9.5-3.9L3.3,23.9z"/>
	</g>
</g>
<g id="XMLID_95_">
	<path id="XMLID_112_" class="st1" d="M71.6,18.2c-0.1,0.2-0.3,0.4-0.4,0.5c-0.1,0.1-0.3,0.2-0.6,0.2c-0.2,0-0.4-0.1-0.6-0.2
		c-0.2-0.1-0.5-0.3-0.8-0.4s-0.6-0.3-1-0.4c-0.4-0.1-0.8-0.2-1.3-0.2c-0.8,0-1.4,0.2-1.8,0.5c-0.4,0.4-0.6,0.8-0.6,1.4
		c0,0.4,0.1,0.7,0.4,0.9c0.2,0.3,0.6,0.5,1,0.6c0.4,0.2,0.8,0.3,1.4,0.5s1,0.3,1.6,0.5c0.5,0.2,1,0.4,1.6,0.7c0.5,0.3,1,0.6,1.4,1
		c0.4,0.4,0.7,0.9,1,1.4c0.2,0.6,0.4,1.2,0.4,2c0,0.9-0.2,1.7-0.5,2.5c-0.3,0.8-0.7,1.4-1.3,2c-0.6,0.6-1.3,1-2.1,1.3
		c-0.8,0.3-1.8,0.5-2.9,0.5c-0.6,0-1.2-0.1-1.8-0.2c-0.6-0.1-1.2-0.3-1.8-0.5c-0.6-0.2-1.1-0.5-1.6-0.8c-0.5-0.3-0.9-0.6-1.3-1
		l1.3-2.1c0.1-0.2,0.2-0.3,0.4-0.4s0.4-0.1,0.6-0.1c0.3,0,0.5,0.1,0.8,0.2c0.3,0.2,0.6,0.3,0.9,0.5s0.7,0.4,1.2,0.5
		c0.4,0.2,0.9,0.2,1.5,0.2c0.8,0,1.4-0.2,1.9-0.5c0.4-0.4,0.7-0.9,0.7-1.7c0-0.4-0.1-0.8-0.4-1.1c-0.2-0.3-0.6-0.5-1-0.7
		c-0.4-0.2-0.8-0.3-1.3-0.5c-0.5-0.1-1-0.3-1.5-0.5c-0.5-0.2-1-0.4-1.5-0.6c-0.5-0.2-1-0.6-1.3-1c-0.4-0.4-0.7-0.9-1-1.5
		c-0.2-0.6-0.4-1.3-0.4-2.2c0-0.7,0.1-1.4,0.4-2.1c0.3-0.7,0.7-1.3,1.3-1.8c0.6-0.5,1.2-1,2-1.3c0.8-0.3,1.7-0.5,2.8-0.5
		c0.6,0,1.1,0,1.7,0.1s1.1,0.2,1.6,0.4c0.5,0.2,1,0.4,1.4,0.6c0.4,0.2,0.8,0.5,1.2,0.8L71.6,18.2z"/>
	<path id="XMLID_110_" class="st1" d="M94.1,14.3v3.4h-7.8v4.4h6v3.2h-6v4.5h7.8v3.4H81.9V14.3H94.1z"/>
	<path id="XMLID_108_" class="st1" d="M104.6,14.4c0.1,0,0.2,0.1,0.4,0.1c0.1,0,0.2,0.1,0.3,0.2s0.2,0.2,0.3,0.4l9,11.4
		c0-0.4-0.1-0.7-0.1-1.1c0-0.3,0-0.7,0-1v-10h3.9v18.9h-2.3c-0.3,0-0.6-0.1-0.9-0.2c-0.2-0.1-0.5-0.3-0.7-0.6l-8.9-11.3
		c0,0.3,0,0.7,0.1,1c0,0.3,0,0.6,0,0.9v10.1h-3.9V14.3h2.3C104.3,14.3,104.5,14.3,104.6,14.4z"/>
	<path id="XMLID_105_" class="st1" d="M135.6,25.9v7.4h-1.3V14.9h4.7c2.2,0,3.8,0.5,4.9,1.4c1.1,0.9,1.6,2.3,1.6,4
		c0,0.8-0.2,1.5-0.4,2.2c-0.3,0.7-0.7,1.3-1.3,1.7c-0.6,0.5-1.2,0.9-2.1,1.1c-0.8,0.3-1.7,0.4-2.7,0.4H135.6z M135.6,24.8h3.4
		c0.8,0,1.5-0.1,2.2-0.3c0.6-0.2,1.2-0.5,1.6-0.9c0.4-0.4,0.8-0.9,1-1.4c0.2-0.5,0.4-1.1,0.4-1.8c0-1.4-0.4-2.5-1.3-3.3
		c-0.9-0.8-2.2-1.1-3.9-1.1h-3.4V24.8z"/>
	<path id="XMLID_102_" class="st1" d="M169.9,24.1c0,1.4-0.2,2.7-0.6,3.9c-0.4,1.2-1,2.1-1.8,3c-0.8,0.8-1.7,1.5-2.8,1.9
		c-1.1,0.4-2.3,0.7-3.6,0.7c-1.3,0-2.5-0.2-3.5-0.7c-1.1-0.4-2-1.1-2.8-1.9s-1.4-1.8-1.8-3c-0.4-1.2-0.6-2.4-0.6-3.9
		c0-1.4,0.2-2.7,0.6-3.9c0.4-1.2,1-2.1,1.8-3c0.8-0.8,1.7-1.5,2.8-1.9c1.1-0.5,2.3-0.7,3.5-0.7c1.3,0,2.5,0.2,3.6,0.7
		c1.1,0.4,2,1.1,2.8,1.9c0.8,0.8,1.4,1.8,1.8,3C169.6,21.4,169.9,22.7,169.9,24.1z M168.5,24.1c0-1.3-0.2-2.4-0.5-3.5
		c-0.4-1-0.9-1.9-1.5-2.6c-0.6-0.7-1.4-1.3-2.3-1.6c-0.9-0.4-1.9-0.6-3-0.6c-1.1,0-2.1,0.2-3,0.6c-0.9,0.4-1.7,0.9-2.3,1.6
		c-0.7,0.7-1.2,1.6-1.5,2.6c-0.4,1-0.5,2.2-0.5,3.5c0,1.3,0.2,2.4,0.5,3.5c0.4,1,0.9,1.9,1.5,2.6c0.7,0.7,1.4,1.3,2.3,1.6
		c0.9,0.4,1.9,0.6,3,0.6c1.1,0,2.1-0.2,3-0.6c0.9-0.4,1.7-0.9,2.3-1.6c0.6-0.7,1.1-1.6,1.5-2.6C168.3,26.5,168.5,25.4,168.5,24.1z"
		/>
	<path id="XMLID_100_" class="st1" d="M180.7,33.3h-1.3V14.9h1.3V33.3z"/>
	<path id="XMLID_98_" class="st1" d="M194.3,14.9c0.1,0,0.1,0.1,0.2,0.2l11.9,15.9c0-0.3,0-0.5,0-0.8V14.9h1.2v18.4h-0.6
		c-0.2,0-0.4-0.1-0.5-0.3l-12-16c0,0.3,0,0.5,0,0.7v15.5h-1.2V14.9h0.6C194.2,14.9,194.3,14.9,194.3,14.9z"/>
	<path id="XMLID_96_" class="st1" d="M229.7,14.9V16h-6.5v17.3h-1.3V16h-6.5v-1.1H229.7z"/>
</g>
</svg>
