<svg xmlns="http://www.w3.org/2000/svg" viewBox="0 0 89.099 90.333"><defs><style>.a{fill:#ffb300;}.b{fill:#42a4dc;}</style></defs><g transform="translate(-1060.732 -519)"><g transform="translate(1060.732 530.821)"><path class="a" d="M92.6,96.551a1.324,1.324,0,0,0-1.323-1.323h-32.2V84.2a1.323,1.323,0,0,0-1.323-1.323H46.725V78.027A11.034,11.034,0,0,0,31.406,67.866c-.035.015-.069.032-.1.047-.035-.015-.069-.032-.1-.047A11.023,11.023,0,0,0,15.88,78.027v4.851H4.822A1.323,1.323,0,0,0,3.5,84.2h0v59.985a1.323,1.323,0,0,0,1.323,1.323H48.895l.034,0H91.274a1.325,1.325,0,0,0,1.323-1.323c0-.012,0-.025,0-.037s0-.025,0-.037ZM35.7,69.645a8.382,8.382,0,0,1,8.381,8.382v4.851H37.934V78.027a11.008,11.008,0,0,0-3.231-7.8c-.156-.156-.318-.306-.482-.451A8.481,8.481,0,0,1,35.7,69.645Zm-4.4,1.246a8.43,8.43,0,0,1,1.529,1.21,8.341,8.341,0,0,1,2.456,5.926v4.851H27.318V78.027A8.331,8.331,0,0,1,29.772,72.1,8.445,8.445,0,0,1,31.3,70.891ZM20.98,72.1a8.34,8.34,0,0,1,5.926-2.456,8.478,8.478,0,0,1,1.477.133c-.164.146-.326.3-.482.451a10.99,10.99,0,0,0-3.23,7.8v4.851H18.526V78.027h0A8.331,8.331,0,0,1,20.98,72.1Zm26.625,70.763H6.145V85.525H15.88v9.263a1.323,1.323,0,0,0,2.646,0V85.525H35.287v9.263a1.323,1.323,0,0,0,2.646,0V85.525h9.672Zm8.822,0H50.252V85.525h6.175Zm24.7,0H59.073V111.9A10.135,10.135,0,0,0,67.9,101.844a1.323,1.323,0,1,0-2.646,0,7.5,7.5,0,0,1-6.177,7.381V97.874H81.13v44.992Zm8.822,0H83.776V97.874h6.175Z" transform="translate(-3.499 -67)"/></g><g transform="translate(1126.013 524.293)"><path class="b" d="M377.475,30a3.97,3.97,0,1,0,3.97,3.97A3.974,3.974,0,0,0,377.475,30Zm0,5.293a1.323,1.323,0,1,1,1.323-1.323A1.325,1.325,0,0,1,377.475,35.295Z" transform="translate(-373.505 -30.002)"/></g><g transform="translate(1136.599 534.879)"><path class="b" d="M437.475,90a3.97,3.97,0,1,0,3.97,3.97A3.974,3.974,0,0,0,437.475,90Zm0,5.293a1.323,1.323,0,1,1,1.323-1.323A1.325,1.325,0,0,1,437.475,95.295Z" transform="translate(-433.505 -90.002)"/></g><g transform="translate(1126.013 524.294)"><path class="b" d="M391.643,30.39a1.324,1.324,0,0,0-1.872,0L373.892,46.27a1.323,1.323,0,0,0,1.872,1.872l15.879-15.879A1.323,1.323,0,0,0,391.643,30.39Z" transform="translate(-373.504 -30.003)"/></g><g transform="translate(1120.719 519)"><path class="b" d="M371.289,0H344.824a1.316,1.316,0,0,0-1.3,1.544,1.332,1.332,0,0,0-.02.221v8.381a1.323,1.323,0,1,0,2.646,0v-7.5h23.818V25.229l-11.909,6.352-11.909-6.352V15.438a1.323,1.323,0,1,0-2.646,0V26.012a1.311,1.311,0,0,0,.147.616c0,.008.007.017.012.025l.01.017a1.315,1.315,0,0,0,.531.523l13.232,7.057a1.327,1.327,0,0,0,1.246,0l13.232-7.057a1.313,1.313,0,0,0,.466-.419l.009-.012c.014-.021.026-.042.039-.064s.021-.033.03-.051.009-.019.014-.028a1.312,1.312,0,0,0,.142-.574s0-.008,0-.012,0-.005,0-.008V1.323A1.324,1.324,0,0,0,371.289,0Z" transform="translate(-343.501)"/></g></g></svg>