<svg xmlns="http://www.w3.org/2000/svg" xmlns:xlink="http://www.w3.org/1999/xlink" viewBox="0 0 80.919 89.91"><defs><style>.a{fill:url(#a);}.b{fill:url(#e);}</style><linearGradient id="a" x1="-0.427" y1="3.518" x2="-0.427" y2="3.148" gradientUnits="objectBoundingBox"><stop offset="0" stop-color="#006df0"/><stop offset="1" stop-color="#ffb300"/></linearGradient><linearGradient id="e" x1="-1.191" y1="2.323" x2="-1.191" y2="2.01" gradientUnits="objectBoundingBox"><stop offset="0" stop-color="#006df0"/><stop offset="1" stop-color="#42a4dc"/></linearGradient></defs><g transform="translate(-865.079 -519)"><g transform="translate(874.07 519)"><path class="a" d="M75,11.988h47.952V23.976h3V5.994c0-2.7-3.459-5.994-7.493-5.994H79.493A7.5,7.5,0,0,0,72,7.493V32.967h3ZM79.493,3h38.961c2.6,0,4.5,2.1,4.5,3v3H75v-1.5A4.5,4.5,0,0,1,79.493,3Z" transform="translate(-72)"/><path class="a" d="M122.949,324.979H103.469v3h19.481v1.5a4.5,4.5,0,0,1-4.5,4.5H79.493a4.5,4.5,0,0,1-4.5-4.5v-1.5H94.478v-3H75V304H72v25.474a7.5,7.5,0,0,0,7.493,7.493h38.961a7.5,7.5,0,0,0,7.493-7.493V304h-3Z" transform="translate(-72 -247.057)"/><path class="a" d="M208,416h3v3h-3Z" transform="translate(-182.525 -338.078)"/><path class="a" d="M208,24h3v3h-3Z" transform="translate(-182.525 -19.504)"/></g><g transform="translate(865.079 544.475)"><path class="b" d="M272.46,136H233.5a1.5,1.5,0,0,0-1.5,1.5v26.973a1.5,1.5,0,0,0,1.5,1.5h4.5v7.493a1.5,1.5,0,0,0,2.558,1.059l8.552-8.552H272.46a1.5,1.5,0,0,0,1.5-1.5V137.5A1.5,1.5,0,0,0,272.46,136Zm-1.5,26.973H248.484a1.5,1.5,0,0,0-1.059.439l-6.433,6.433v-5.374a1.5,1.5,0,0,0-1.5-1.5H235V139h35.964Z" transform="translate(-193.039 -136)"/><path class="b" d="M44.979,194.49a10.49,10.49,0,1,0-10.49,10.49A10.489,10.489,0,0,0,44.979,194.49ZM27,194.49a7.493,7.493,0,1,1,7.493,7.493A7.493,7.493,0,0,1,27,194.49Z" transform="translate(-24 -175.009)"/><path class="b" d="M58.386,219.987V209.5a1.5,1.5,0,0,0-2.33-1.247l-4.5,3,1.663,2.493,2.165-1.443v7.689Z" transform="translate(-46.398 -194.513)"/><path class="b" d="M273.5,179h23.976a1.5,1.5,0,1,0,0-3H273.5a1.5,1.5,0,1,0,0,3Z" transform="translate(-225.546 -168.507)"/><path class="b" d="M273.5,211h23.976a1.5,1.5,0,1,0,0-3H273.5a1.5,1.5,0,0,0,0,3Z" transform="translate(-225.546 -194.513)"/><path class="b" d="M273.5,243h23.976a1.5,1.5,0,1,0,0-3H273.5a1.5,1.5,0,1,0,0,3Z" transform="translate(-225.546 -220.519)"/></g></g></svg>