<svg xmlns="http://www.w3.org/2000/svg" viewBox="0 0 26.045 26.045">
  <defs>
    <style>
      .cls-1 {
        fill: #dfdbdb;
      }
    </style>
  </defs>
  <g id="instagram-social-network-logo-of-photo-camera" transform="translate(-3863 -3759.955)">
    <path id="Path_251" data-name="Path 251" class="cls-1" d="M3.343,0H22.7a3.264,3.264,0,0,1,3.343,3.343V22.7A3.264,3.264,0,0,1,22.7,26.045H3.343A3.264,3.264,0,0,1,0,22.7V3.343A3.264,3.264,0,0,1,3.343,0Zm15.63,2.894A1.175,1.175,0,0,0,17.8,4.066V6.873a1.176,1.176,0,0,0,1.172,1.173h2.944a1.176,1.176,0,0,0,1.173-1.173V4.066a1.176,1.176,0,0,0-1.173-1.173ZM23.1,11.014H20.809a7.618,7.618,0,0,1,.334,2.234,7.973,7.973,0,0,1-8.1,7.844,7.973,7.973,0,0,1-8.1-7.844,7.6,7.6,0,0,1,.334-2.234H2.894v11A1.039,1.039,0,0,0,3.93,23.052H22.066A1.038,1.038,0,0,0,23.1,22.016v-11ZM13.047,7.9a5.151,5.151,0,0,0-5.231,5.068,5.151,5.151,0,0,0,5.231,5.068,5.152,5.152,0,0,0,5.231-5.068A5.152,5.152,0,0,0,13.047,7.9Z" transform="translate(3863 3759.955)"/>
  </g>
</svg>
