<svg xmlns="http://www.w3.org/2000/svg" viewBox="0 0 30.987 23.24">
  <defs>
    <style>
      .cls-1 {
        fill: #fff;
      }
    </style>
  </defs>
  <g id="mail-black-envelope-symbol" transform="translate(-397.24 -1946.959)">
    <path id="Path_249" data-name="Path 249" class="cls-1" d="M30.987,80.018a3.839,3.839,0,0,1-.5,1.863L20.706,70.934l9.678-8.467a3.845,3.845,0,0,1,.6,2.058Zm-15.493-7.1L28.96,61.139a3.825,3.825,0,0,0-1.846-.488H3.873a3.811,3.811,0,0,0-1.845.488Zm3.754-.713-3.117,2.729a.972.972,0,0,1-1.275,0l-3.118-2.729L1.831,83.3a3.827,3.827,0,0,0,2.043.6h23.24a3.827,3.827,0,0,0,2.043-.6ZM.6,62.467A3.846,3.846,0,0,0,0,64.525V80.018a3.827,3.827,0,0,0,.5,1.863L10.28,70.932Z" transform="translate(397.24 1886.308)"/>
  </g>
</svg>
