<svg xmlns="http://www.w3.org/2000/svg" viewBox="0 0 43.188 55.775"><defs><style>.a{fill:#707070;}</style></defs><g transform="translate(-347.386 -299)"><path class="a" d="M159.018,30.125a20.126,20.126,0,1,0-35.65,12.81h-.012l15.535,19.9L154.5,42.831h0A20.041,20.041,0,0,0,159.018,30.125ZM138.891,42.188a11.742,11.742,0,1,1,11.742-11.742A11.742,11.742,0,0,1,138.891,42.188Z" transform="translate(230.088 290.469)"/><path d="M130.362,55.775a1.468,1.468,0,0,1-1.157-.565l-15.535-19.9q-.04-.051-.075-.105a21.594,21.594,0,1,1,33.55-.021l-.016.021L131.519,55.21A1.467,1.467,0,0,1,130.362,55.775ZM116.09,33.637l14.272,18.284,14.418-18.48c.017-.024.035-.047.053-.07a18.658,18.658,0,1,0-28.862.1A1.485,1.485,0,0,1,116.09,33.637Z" transform="translate(238.618 299)"/><path d="M179.093,85.715a13.211,13.211,0,1,1,3.76-25.876,1.468,1.468,0,0,1-.833,2.815,10.274,10.274,0,1,0,6.927,6.933,1.468,1.468,0,0,1,2.816-.831,13.212,13.212,0,0,1-12.669,16.958Z" transform="translate(189.887 248.41)"/><path d="M303.93,85.693a1.463,1.463,0,0,1-1.038-.43l-.026-.026a1.468,1.468,0,0,1,2.076-2.076l.026.026a1.468,1.468,0,0,1-1.038,2.506Z" transform="translate(73.379 228.413)"/></g></svg>