<svg xmlns="http://www.w3.org/2000/svg" viewBox="0 0 9.139 9.016"><defs><style>.a{fill:#bdbdbd;}</style></defs><g transform="translate(-11.574 -16.133)"><path class="a" d="M9.984,8.212,7.731,5.98a3.526,3.526,0,0,0,.9-2.34A3.739,3.739,0,0,0,4.806,0,3.739,3.739,0,0,0,.984,3.64,3.739,3.739,0,0,0,4.806,7.28,3.913,3.913,0,0,0,7,6.621L9.266,8.87a.516.516,0,0,0,.7.013A.46.46,0,0,0,9.984,8.212ZM4.806.95A2.763,2.763,0,0,1,7.631,3.64,2.763,2.763,0,0,1,4.806,6.33,2.763,2.763,0,0,1,1.981,3.64,2.763,2.763,0,0,1,4.806.95Z" transform="translate(10.59 16.133)"/></g></svg>