<svg xmlns="http://www.w3.org/2000/svg" viewBox="0 0 89.91 89.91"><defs><style>.a{fill:#ffb300;}.b,.c{fill:#42a4dc;}.c{font-size:17px;font-family:Montserrat-Bold, Montserrat;font-weight:700;}</style></defs><g transform="translate(-449.325 -519)"><g transform="translate(479.295 526.492)"><rect class="a" width="29.97" height="2.997"/></g><g transform="translate(468.806 548.97)"><path class="a" d="M158.7,186.224a5.251,5.251,0,0,0-5.245-5.245h-3V160h-3v20.979H143.71a5.237,5.237,0,0,0-3.659,8.991,5.182,5.182,0,0,0-.788,6.494,5.24,5.24,0,0,0-3.046,4.745,5.184,5.184,0,0,0,.526,2.248H124.979a13.48,13.48,0,0,0-5.8-11.075,9.006,9.006,0,0,0,5.8-8.406,1.5,1.5,0,0,0-1.5-1.5H111.493V167.492h-3v14.985a4.5,4.5,0,0,0-4.5,4.5V219.94h3V186.973a1.5,1.5,0,0,1,1.5-1.5h13.3a6,6,0,0,1-5.8,4.5h-4.5a1.5,1.5,0,0,0,0,3,10.5,10.5,0,0,1,10.49,10.49v1.5a1.5,1.5,0,0,0,1.5,1.5h8.768a5.184,5.184,0,0,0-.526,2.248,5.251,5.251,0,0,0,5.245,5.245v5.994h3v-5.994h6.743a5.251,5.251,0,0,0,5.245-5.245,5.181,5.181,0,0,0-.538-2.269,5.2,5.2,0,0,0,4.236-7.971,5.219,5.219,0,0,0,1.46-8.491A5.223,5.223,0,0,0,158.7,186.224Zm-11.988,24.725h-9.74a2.248,2.248,0,0,1,0-4.5h9.74a2.248,2.248,0,0,1,0,4.5Zm4.5-7.493h-9.74a2.248,2.248,0,1,1,0-4.5h9.74a2.248,2.248,0,0,1,0,4.5Zm2.248-7.493h-9.74a2.248,2.248,0,1,1,0-4.5h9.74a2.248,2.248,0,1,1,0,4.5Zm0-7.492h-9.74a2.248,2.248,0,1,1,0-4.5h9.74a2.248,2.248,0,0,1,0,4.5Z" transform="translate(-104 -160)"/></g><g transform="translate(489.785 541.478)"><path class="b" d="M224.991,123v-3h-4.5a1.5,1.5,0,0,0-1.5,1.5v4.5h-3v3h3v5.994h3v-5.994h3v-3h-3v-3Z" transform="translate(-216 -120)"/></g><g transform="translate(480.794 535.484)"><path class="b" d="M190.478,88H172.5a4.5,4.5,0,0,0-4.5,4.5v17.982a4.5,4.5,0,0,0,4.5,4.5h17.982a4.5,4.5,0,0,0,4.5-4.5V92.5A4.5,4.5,0,0,0,190.478,88Zm1.5,22.478a1.5,1.5,0,0,1-1.5,1.5H172.5a1.5,1.5,0,0,1-1.5-1.5V92.5a1.5,1.5,0,0,1,1.5-1.5h17.982a1.5,1.5,0,0,1,1.5,1.5Z" transform="translate(-168 -88)"/></g><g transform="translate(449.325 526.492)"><path class="b" d="M22.478,40H4.5A4.5,4.5,0,0,0,0,44.5V62.478a4.5,4.5,0,0,0,4.5,4.5H22.478a4.5,4.5,0,0,0,4.5-4.5V44.5A4.5,4.5,0,0,0,22.478,40Zm1.5,22.478a1.5,1.5,0,0,1-1.5,1.5H4.5a1.5,1.5,0,0,1-1.5-1.5V44.5A1.5,1.5,0,0,1,4.5,43H22.478a1.5,1.5,0,0,1,1.5,1.5Z" transform="translate(0 -40)"/></g><g transform="translate(512.263 519)"><path class="b" d="M358.478,0H340.5A4.5,4.5,0,0,0,336,4.5V22.478a4.5,4.5,0,0,0,4.5,4.5h17.982a4.5,4.5,0,0,0,4.5-4.5V4.5A4.5,4.5,0,0,0,358.478,0Zm1.5,22.478a1.5,1.5,0,0,1-1.5,1.5H340.5a1.5,1.5,0,0,1-1.5-1.5V14.985h3.148a7.492,7.492,0,0,0,14.682,0h3.148Zm-14.985-8.991a4.5,4.5,0,1,1,4.5,4.5A4.5,4.5,0,0,1,344.991,13.487Zm14.985-1.5h-3.148a7.492,7.492,0,0,0-14.682,0H339V4.5A1.5,1.5,0,0,1,340.5,3h17.982a1.5,1.5,0,0,1,1.5,1.5Z" transform="translate(-336)"/></g><text class="c" transform="translate(456 547)"><tspan x="0" y="0">G</tspan></text></g></svg>