<svg xmlns="http://www.w3.org/2000/svg" xmlns:xlink="http://www.w3.org/1999/xlink" viewBox="0 0 54.898 54.898"><defs><style>.a{fill:url(#a);}.b{fill:#fff;}</style><linearGradient id="a" x1="0.5" x2="0.5" y2="1" gradientUnits="objectBoundingBox"><stop offset="0" stop-color="#f40"/><stop offset="1" stop-color="#b21313"/></linearGradient></defs><g transform="translate(-472.153 -691)"><circle class="a" cx="27.449" cy="27.449" r="27.449" transform="translate(472.153 691)"/><g transform="translate(483.81 702.035)"><path class="b" d="M92.272,175.67" transform="translate(-86.46 -164.611)"/><path class="b" d="M427.6,403.941a.63.63,0,1,0,.445.185A.634.634,0,0,0,427.6,403.941Z" transform="translate(-400.075 -378.504)"/><path class="b" d="M157.914,435.933a2.393,2.393,0,1,0,2.393,2.393A2.4,2.4,0,0,0,157.914,435.933Zm0,3.526a1.133,1.133,0,1,1,1.133-1.133A1.135,1.135,0,0,1,157.914,439.459Z" transform="translate(-145.725 -408.481)"/><path class="b" d="M341.286,435.933a2.393,2.393,0,1,0,2.393,2.393A2.4,2.4,0,0,0,341.286,435.933Zm0,3.526a1.133,1.133,0,1,1,1.133-1.133A1.135,1.135,0,0,1,341.286,439.459Z" transform="translate(-317.548 -408.481)"/><path class="b" d="M29.441,106.636a.63.63,0,0,0-.737.5l-.915,4.751a.631.631,0,0,1-.618.511H9L6.533,101.671h6.475a.63.63,0,1,0,0-1.259H6.243l-.672-2.921A1.88,1.88,0,0,0,3.73,96.025H.63a.63.63,0,0,0,0,1.259h3.1a.627.627,0,0,1,.614.489L8.579,116.19a.63.63,0,0,0,.614.489H25.254a.63.63,0,1,0,0-1.259H9.694l-.405-1.763H27.17a1.892,1.892,0,0,0,1.855-1.532l.915-4.751A.63.63,0,0,0,29.441,106.636Z" transform="translate(0 -89.982)"/><path class="b" d="M262.4,8.593a1.621,1.621,0,0,0-.244-2.013l-.629-.619a.368.368,0,0,1-.109-.289l.063-.885a1.619,1.619,0,0,0-1.154-1.675l-.833-.251a.369.369,0,0,1-.232-.206l-.349-.8A1.638,1.638,0,0,0,257.1.9l-.845.166a.368.368,0,0,1-.3-.075l-.673-.543a1.637,1.637,0,0,0-2.046,0l-.673.543a.368.368,0,0,1-.3.075L251.417.9a1.638,1.638,0,0,0-1.807.95l-.349.8a.368.368,0,0,1-.232.206l-.833.251a1.619,1.619,0,0,0-1.154,1.675l.063.885A.369.369,0,0,1,247,5.96l-.629.619a1.621,1.621,0,0,0-.244,2.013l.465.756a.369.369,0,0,1,.037.306l-.272.846a1.62,1.62,0,0,0,.719,1.9l.754.448A.368.368,0,0,1,248,13.1l.148.87a1.618,1.618,0,0,0,1.524,1.353l.863.043a.368.368,0,0,1,.275.145l.526.693a1.637,1.637,0,0,0,1.3.641,1.614,1.614,0,0,0,.683-.151l.78-.364h0a.368.368,0,0,1,.312,0l.78.364a1.637,1.637,0,0,0,1.985-.49l.526-.692a.368.368,0,0,1,.275-.145l.863-.043a1.618,1.618,0,0,0,1.524-1.353l.148-.87a.368.368,0,0,1,.175-.255l.754-.447a1.62,1.62,0,0,0,.719-1.9l-.272-.846a.368.368,0,0,1,.037-.306Zm-1.072-.66-.465.756a1.627,1.627,0,0,0-.163,1.352l.272.846a.367.367,0,0,1-.163.43l-.754.447a1.626,1.626,0,0,0-.774,1.126l-.148.87a.367.367,0,0,1-.345.306l-.863.043a1.625,1.625,0,0,0-1.216.641l-.526.692a.371.371,0,0,1-.45.111l-.78-.364a1.624,1.624,0,0,0-1.378,0l-.78.364a.371.371,0,0,1-.45-.111l-.526-.693a1.625,1.625,0,0,0-1.216-.641l-.863-.043a.367.367,0,0,1-.345-.306l-.148-.87a1.626,1.626,0,0,0-.774-1.126l-.754-.447a.367.367,0,0,1-.163-.43l.272-.846a1.627,1.627,0,0,0-.163-1.352l-.465-.756a.367.367,0,0,1,.055-.456l.629-.62a1.626,1.626,0,0,0,.481-1.276L248.3,4.7a.367.367,0,0,1,.262-.379l.833-.251a1.625,1.625,0,0,0,1.024-.911l.349-.8a.372.372,0,0,1,.34-.222.367.367,0,0,1,.07.007l.845.166a1.623,1.623,0,0,0,1.336-.331l.673-.543a.371.371,0,0,1,.464,0l.673.543A1.625,1.625,0,0,0,256.5,2.3l.845-.166a.371.371,0,0,1,.409.215l.349.8a1.625,1.625,0,0,0,1.024.911l.833.251a.367.367,0,0,1,.262.379l-.063.885a1.626,1.626,0,0,0,.481,1.276l.629.619A.367.367,0,0,1,261.325,7.933Z" transform="translate(-230.393 -0.088)"/><path class="b" d="M344.649,86.616a.629.629,0,0,0-.858.239l-2.92,5.173a.63.63,0,1,0,1.1.619l2.92-5.173A.63.63,0,0,0,344.649,86.616Z" transform="translate(-319.325 -81.089)"/><path class="b" d="M384.709,140.346a1.638,1.638,0,1,0,1.638,1.638A1.639,1.639,0,0,0,384.709,140.346Zm0,2.016a.378.378,0,1,1,.378-.378A.379.379,0,0,1,384.709,142.362Z" transform="translate(-358.943 -131.512)"/><path class="b" d="M326.085,75.523a1.638,1.638,0,1,0-1.637,1.638A1.639,1.639,0,0,0,326.085,75.523Zm-2.016,0a.378.378,0,1,1,.378.378A.379.379,0,0,1,324.069,75.523Z" transform="translate(-302.478 -69.237)"/></g></g></svg>