<svg xmlns="http://www.w3.org/2000/svg" xmlns:xlink="http://www.w3.org/1999/xlink" viewBox="0 0 54.898 54.898"><defs><style>.a{fill:url(#a);}.b{fill:#fff;}</style><linearGradient id="a" x1="0.5" x2="0.5" y2="1" gradientUnits="objectBoundingBox"><stop offset="0" stop-color="#ffbc04"/><stop offset="1" stop-color="#eb4101"/></linearGradient></defs><g transform="translate(-727.443 -693)"><path class="a" d="M27.449,0A27.449,27.449,0,1,1,0,27.449,27.449,27.449,0,0,1,27.449,0Z" transform="translate(727.443 693)"/><g transform="translate(737.753 698.944)"><g transform="translate(5.94 21.977)"><path class="b" d="M111.159,317.026c-.034-.058-.071-.113-.107-.161a2.315,2.315,0,0,0-3.231-.533l-6.641,4.742H94.244a.594.594,0,1,1,0-1.188H98.1a2.081,2.081,0,0,0,2.079-2.079c0-.007,0-.061,0-.067a2.086,2.086,0,0,0-2.125-2.012H90.33a2.98,2.98,0,0,0-1.878.69l-2.9,2.418a.6.6,0,0,0-.214.457v7.128a.594.594,0,0,0,.594.594h14.737a4.168,4.168,0,0,0,2.647-.956l7.2-5.95A2.334,2.334,0,0,0,111.159,317.026Zm-1.369,2.139-7.235,5.976a2.981,2.981,0,0,1-1.891.683H86.522v-6.255l2.691-2.24a1.787,1.787,0,0,1,1.122-.414h7.741a.908.908,0,0,1,.919.892.892.892,0,0,1-.891.891H94.244a1.782,1.782,0,1,0,0,3.564h7.128a.6.6,0,0,0,.346-.11l6.8-4.853a1.127,1.127,0,0,1,1.577.264c.018.024.034.049.049.075A1.153,1.153,0,0,1,109.79,319.165Z" transform="translate(-85.334 -315.726)"/></g><g transform="translate(0 24.353)"><path class="b" d="M6.516,349.867H0v1.188H5.922v8.909H0v1.188H6.516a.594.594,0,0,0,.594-.594v-10.1A.594.594,0,0,0,6.516,349.867Z" transform="translate(0 -349.867)"/></g><g transform="translate(1.188 29.699)"><path class="b" d="M18.849,426.667a1.782,1.782,0,1,0,1.782,1.782A1.784,1.784,0,0,0,18.849,426.667Zm0,2.376a.594.594,0,1,1,.594-.594A.594.594,0,0,1,18.849,429.043Z" transform="translate(-17.067 -426.667)"/></g><g transform="translate(0 18.413)"><path class="b" d="M35.045,264.533H.594a.594.594,0,0,0-.594.594,4.163,4.163,0,0,0,4.158,4.158H31.481a4.163,4.163,0,0,0,4.158-4.158A.593.593,0,0,0,35.045,264.533ZM31.481,268.1H4.158a2.975,2.975,0,0,1-2.91-2.376H34.391A2.974,2.974,0,0,1,31.481,268.1Z" transform="translate(0 -264.533)"/></g><g transform="translate(2.376 2.97)"><path class="b" d="M49.576,42.667A15.461,15.461,0,0,0,34.133,58.11V58.7a.594.594,0,0,0,.594.594h29.7a.593.593,0,0,0,.594-.594V58.11A15.461,15.461,0,0,0,49.576,42.667ZM35.321,58.11a14.255,14.255,0,0,1,28.511,0Z" transform="translate(-34.133 -42.667)"/></g><g transform="translate(6.906 9.745)"><path class="b" d="M100.353,140.006a13.28,13.28,0,0,0-1.144,1.486l.99.656a12.133,12.133,0,0,1,1.042-1.353Z" transform="translate(-99.209 -140.006)"/></g><g transform="translate(8.877 5.346)"><path class="b" d="M136.473,76.8a13.02,13.02,0,0,0-8.942,3.547l.814.865a11.836,11.836,0,0,1,8.129-3.225Z" transform="translate(-127.531 -76.8)"/></g><g transform="translate(16.037)"><rect class="b" width="3.564" height="1.188"/></g><g transform="translate(17.225 0.594)"><rect class="b" width="1.188" height="2.97"/></g></g></g></svg>