<svg xmlns="http://www.w3.org/2000/svg" xmlns:xlink="http://www.w3.org/1999/xlink" viewBox="0 0 40.513 40.513">
  <defs>
    <style>
      .cls-1 {
        fill: url(#linear-gradient);
      }

      .cls-2 {
        fill: #fff;
      }
    </style>
    <linearGradient id="linear-gradient" x1="0.5" x2="0.5" y2="1" gradientUnits="objectBoundingBox">
      <stop offset="0" stop-color="#f40"/>
      <stop offset="1" stop-color="#b21313"/>
    </linearGradient>
  </defs>
  <g id="Symbol_43_2" data-name="Symbol 43 – 2" transform="translate(-99 -300)">
    <circle id="Ellipse_9" data-name="Ellipse 9" class="cls-1" cx="20.257" cy="20.257" r="20.257" transform="translate(99 300)"/>
    <g id="bargain" transform="translate(107.602 308.144)">
      <path id="Path_170" data-name="Path 170" class="cls-2" d="M92.272,175.67" transform="translate(-87.983 -167.509)"/>
      <path id="Path_172" data-name="Path 172" class="cls-2" d="M427.433,403.941a.465.465,0,1,0,.329.136A.468.468,0,0,0,427.433,403.941Z" transform="translate(-407.122 -385.169)"/>
      <path id="Path_173" data-name="Path 173" class="cls-2" d="M157.287,435.933a1.766,1.766,0,1,0,1.766,1.766A1.768,1.768,0,0,0,157.287,435.933Zm0,2.6a.836.836,0,1,1,.836-.836A.837.837,0,0,1,157.287,438.535Z" transform="translate(-148.292 -415.674)"/>
      <path id="Path_174" data-name="Path 174" class="cls-2" d="M340.659,435.933a1.766,1.766,0,1,0,1.766,1.766A1.768,1.768,0,0,0,340.659,435.933Zm0,2.6a.836.836,0,1,1,.836-.836A.837.837,0,0,1,340.659,438.535Z" transform="translate(-323.141 -415.674)"/>
      <path id="Path_175" data-name="Path 175" class="cls-2" d="M21.726,103.855a.465.465,0,0,0-.544.368l-.675,3.506a.465.465,0,0,1-.456.377H6.641l-1.82-7.915H9.6a.465.465,0,1,0,0-.929H4.607l-.5-2.156a1.387,1.387,0,0,0-1.359-1.082H.465a.465.465,0,0,0,0,.929H2.753a.462.462,0,0,1,.453.361l3.125,13.591a.465.465,0,0,0,.453.361H18.636a.465.465,0,1,0,0-.929H7.154l-.3-1.3h13.2a1.4,1.4,0,0,0,1.369-1.13l.675-3.506A.465.465,0,0,0,21.726,103.855Z" transform="translate(0 -91.566)"/>
      <path id="Path_176" data-name="Path 176" class="cls-2" d="M258.07,6.364a1.2,1.2,0,0,0-.18-1.486l-.464-.457a.272.272,0,0,1-.081-.213l.046-.653a1.2,1.2,0,0,0-.852-1.236l-.615-.185a.272.272,0,0,1-.171-.152l-.257-.593a1.209,1.209,0,0,0-1.334-.7l-.624.122a.272.272,0,0,1-.223-.055l-.5-.4a1.208,1.208,0,0,0-1.51,0l-.5.4a.271.271,0,0,1-.224.055l-.624-.122a1.209,1.209,0,0,0-1.334.7l-.257.594a.272.272,0,0,1-.171.152l-.614.185a1.2,1.2,0,0,0-.852,1.236l.046.653a.272.272,0,0,1-.081.213l-.464.457a1.2,1.2,0,0,0-.18,1.486l.343.558a.272.272,0,0,1,.027.226l-.2.624a1.2,1.2,0,0,0,.531,1.4l.556.33a.272.272,0,0,1,.129.188l.109.642a1.194,1.194,0,0,0,1.125,1l.637.032a.272.272,0,0,1,.2.107l.388.511a1.208,1.208,0,0,0,.961.473,1.191,1.191,0,0,0,.5-.112l.576-.269h0a.271.271,0,0,1,.23,0l.576.269a1.208,1.208,0,0,0,1.465-.362l.388-.511a.272.272,0,0,1,.2-.107l.637-.032a1.194,1.194,0,0,0,1.125-1l.109-.642a.272.272,0,0,1,.129-.188l.556-.33a1.2,1.2,0,0,0,.531-1.4l-.2-.624a.272.272,0,0,1,.027-.226Zm-.791-.487-.343.558a1.2,1.2,0,0,0-.121,1l.2.624a.271.271,0,0,1-.12.317l-.556.33a1.2,1.2,0,0,0-.571.831l-.109.642a.271.271,0,0,1-.255.226l-.637.032a1.2,1.2,0,0,0-.9.473l-.388.511a.274.274,0,0,1-.332.082l-.576-.269a1.2,1.2,0,0,0-1.017,0l-.576.269a.274.274,0,0,1-.332-.082l-.388-.511a1.2,1.2,0,0,0-.9-.473l-.637-.032a.27.27,0,0,1-.255-.226l-.109-.642a1.2,1.2,0,0,0-.571-.831l-.556-.33a.271.271,0,0,1-.12-.317l.2-.624a1.2,1.2,0,0,0-.121-1l-.343-.558a.271.271,0,0,1,.041-.337l.464-.457a1.2,1.2,0,0,0,.355-.941l-.046-.653a.271.271,0,0,1,.193-.28l.614-.185a1.2,1.2,0,0,0,.756-.672l.257-.594a.274.274,0,0,1,.251-.164.271.271,0,0,1,.052.005l.624.122a1.2,1.2,0,0,0,.986-.244l.5-.4a.274.274,0,0,1,.342,0l.5.4a1.2,1.2,0,0,0,.986.244l.624-.122a.273.273,0,0,1,.3.159l.257.593a1.2,1.2,0,0,0,.756.673l.614.185a.271.271,0,0,1,.193.28l-.046.653a1.2,1.2,0,0,0,.355.941l.464.457A.271.271,0,0,1,257.278,5.877Z" transform="translate(-234.451 -0.088)"/>
      <path id="Path_177" data-name="Path 177" class="cls-2" d="M343.638,86.594a.465.465,0,0,0-.633.176l-2.155,3.817a.465.465,0,1,0,.809.457l2.155-3.817A.465.465,0,0,0,343.638,86.594Z" transform="translate(-324.95 -82.516)"/>
      <path id="Path_178" data-name="Path 178" class="cls-2" d="M384.28,140.346a1.209,1.209,0,1,0,1.208,1.209A1.21,1.21,0,0,0,384.28,140.346Zm0,1.488a.279.279,0,1,1,.279-.279A.279.279,0,0,1,384.28,141.834Z" transform="translate(-365.266 -133.827)"/>
      <path id="Path_179" data-name="Path 179" class="cls-2" d="M325.227,75.094a1.208,1.208,0,1,0-1.208,1.209A1.21,1.21,0,0,0,325.227,75.094Zm-1.488,0a.279.279,0,1,1,.279.279A.279.279,0,0,1,323.739,75.094Z" transform="translate(-307.806 -70.455)"/>
    </g>
  </g>
</svg>
