<svg xmlns="http://www.w3.org/2000/svg" viewBox="0 0 21.134 21.134">
  <defs>
    <style>
      .cls-1 {
        fill: #2e2e2e;
      }
    </style>
  </defs>
  <g id="instagram-social-network-logo-of-photo-camera" transform="translate(-1079.866 -562.866)">
    <path id="Path_251" data-name="Path 251" class="cls-1" d="M2.713,0H18.421a2.648,2.648,0,0,1,2.712,2.712V18.421a2.648,2.648,0,0,1-2.712,2.712H2.713A2.648,2.648,0,0,1,0,18.421V2.712A2.648,2.648,0,0,1,2.713,0ZM15.4,2.348a.954.954,0,0,0-.951.952V5.577a.954.954,0,0,0,.951.952h2.389a.954.954,0,0,0,.952-.952V3.3a.954.954,0,0,0-.952-.952Zm3.35,6.589h-1.86a6.181,6.181,0,0,1,.271,1.813,6.47,6.47,0,0,1-6.569,6.365A6.469,6.469,0,0,1,4.018,10.75a6.171,6.171,0,0,1,.271-1.813H2.348v8.927a.843.843,0,0,0,.84.84H17.905a.843.843,0,0,0,.84-.84V8.937ZM10.587,6.408a4.18,4.18,0,0,0-4.244,4.113,4.18,4.18,0,0,0,4.244,4.113,4.18,4.18,0,0,0,4.245-4.113A4.18,4.18,0,0,0,10.587,6.408Z" transform="translate(1079.866 562.866)"/>
  </g>
</svg>
