<svg xmlns="http://www.w3.org/2000/svg" xmlns:xlink="http://www.w3.org/1999/xlink" viewBox="0 0 54.898 54.898"><defs><style>.a{fill:url(#a);}.b{fill:#fff;}</style><linearGradient id="a" x1="0.5" x2="0.5" y2="1" gradientUnits="objectBoundingBox"><stop offset="0" stop-color="#21ceb6"/><stop offset="1" stop-color="#115567"/></linearGradient></defs><g transform="translate(-855.642 -693)"><path class="a" d="M27.449,0A27.449,27.449,0,1,1,0,27.449,27.449,27.449,0,0,1,27.449,0Z" transform="translate(855.642 693)"/><g transform="translate(866.745 701.819)"><g transform="translate(0 11.497)"><path class="b" d="M32.917,177.377H27.54v-1.388a.656.656,0,0,0-.656-.656H12.721a.656.656,0,0,0,0,1.311H26.229v5.027a12.493,12.493,0,0,1-6.165,10.754H7.476a12.493,12.493,0,0,1-6.165-10.754v-5.027H5.7a.656.656,0,1,0,0-1.311H.656a.656.656,0,0,0-.656.656v5.683a13.747,13.747,0,0,0,5.171,10.754H.656a.656.656,0,0,0-.656.656,4.333,4.333,0,0,0,4.328,4.328H24.786a4.333,4.333,0,0,0,4.328-4.328.656.656,0,0,0-.656-.656H22.369a13.85,13.85,0,0,0,3.036-3.388h1.851a6.324,6.324,0,0,0,6.317-6.317v-4.688A.656.656,0,0,0,32.917,177.377Zm-5.186,16.36a3.022,3.022,0,0,1-2.944,2.361H4.328a3.022,3.022,0,0,1-2.944-2.361H27.73Zm-.19-12.065v-.361h2.1v1.41a2.385,2.385,0,0,1-2.382,2.382h-.149A13.8,13.8,0,0,0,27.54,181.672Zm4.721,1.049a5.011,5.011,0,0,1-5.005,5.005H26.14a13.685,13.685,0,0,0,.56-1.311h.556a3.7,3.7,0,0,0,3.694-3.694v-2.066a.656.656,0,0,0-.656-.656H27.54v-1.311h4.721Z" transform="translate(0 -175.333)"/></g><g transform="translate(12.366)"><path class="b" d="M190.615,3.629l-.341-.428a1.709,1.709,0,0,1,0-2.137.656.656,0,1,0-1.027-.815,3.015,3.015,0,0,0,0,3.77l.341.428a2.234,2.234,0,0,1,0,2.793l-.35.441a.656.656,0,1,0,1.027.815l.35-.441A3.539,3.539,0,0,0,190.615,3.629Z" transform="translate(-188.585 0)"/></g><g transform="translate(16 1.474)"><path class="b" d="M246.045,26.113l-.341-.428a1.709,1.709,0,0,1,0-2.137.656.656,0,0,0-1.027-.815,3.015,3.015,0,0,0,0,3.77l.341.428a2.234,2.234,0,0,1,0,2.793l-.35.44a.656.656,0,1,0,1.027.815l.35-.44A3.54,3.54,0,0,0,246.045,26.113Z" transform="translate(-244.014 -22.484)"/></g><g transform="translate(8.731 1.474)"><path class="b" d="M135.186,26.114l-.341-.428a1.709,1.709,0,0,1,0-2.137.656.656,0,0,0-1.027-.815,3.015,3.015,0,0,0,0,3.77l.341.428a2.234,2.234,0,0,1,0,2.793l-.35.44a.656.656,0,1,0,1.027.815l.35-.441A3.54,3.54,0,0,0,135.186,26.114Z" transform="translate(-133.156 -22.485)"/></g><g transform="translate(8.735 11.497)"><path class="b" d="M134.329,175.522a.656.656,0,1,0,.192.464A.66.66,0,0,0,134.329,175.522Z" transform="translate(-133.21 -175.33)"/></g><g transform="translate(20.183 17.18)"><path class="b" d="M311.349,262a.656.656,0,0,0-.656.656,9.4,9.4,0,0,1-2.709,6.563.656.656,0,1,0,.932.923A10.716,10.716,0,0,0,312,262.656.656.656,0,0,0,311.349,262Z" transform="translate(-307.795 -262)"/></g><g transform="translate(18.029 25.844)"><path class="b" d="M276.187,394.47a.656.656,0,0,0-.893-.249l-.015.008a.656.656,0,1,0,.644,1.142l.015-.009A.656.656,0,0,0,276.187,394.47Z" transform="translate(-274.945 -394.136)"/></g></g></g></svg>