<svg xmlns="http://www.w3.org/2000/svg" viewBox="0 0 13 24.045">
  <defs>
    <style>
      .cls-1 {
        fill: #dfdbdb;
      }
    </style>
  </defs>
  <g id="facebook-logo_1_" data-name="facebook-logo (1)" transform="translate(-3776 -3761.955)">
    <path id="Path_250" data-name="Path 250" class="cls-1" d="M34.587.005,31.469,0C27.966,0,25.7,2.323,25.7,5.918V8.646H22.567a.49.49,0,0,0-.49.491V13.09a.49.49,0,0,0,.49.49H25.7v9.975a.49.49,0,0,0,.49.49h4.09a.49.49,0,0,0,.49-.49V13.58h3.666a.49.49,0,0,0,.49-.49V9.136a.491.491,0,0,0-.491-.491H30.773V6.333c0-1.112.265-1.676,1.713-1.676h2.1a.49.49,0,0,0,.49-.49V.5A.49.49,0,0,0,34.587.005Z" transform="translate(3753.923 3761.955)"/>
  </g>
</svg>
