<svg xmlns="http://www.w3.org/2000/svg" viewBox="0 0 26.045 26.045">
  <defs>
    <style>
      .cls-1 {
        fill: #dfdbdb;
      }
    </style>
  </defs>
  <g id="linkedin-logo" transform="translate(-3813 -3759.955)">
    <path id="LinkedIn__x28_alt_x29_" class="cls-1" d="M24.124,0H1.926A1.9,1.9,0,0,0,0,1.866V24.178a1.9,1.9,0,0,0,1.924,1.867h22.2a1.9,1.9,0,0,0,1.923-1.867V1.866A1.9,1.9,0,0,0,24.124,0ZM7.9,21.8H3.963V10.042H7.9ZM5.931,8.436H5.9a2.038,2.038,0,1,1,.051-4.063,2.039,2.039,0,1,1-.025,4.063ZM22.083,21.8H18.149V15.51c0-1.581-.57-2.66-1.993-2.66a2.149,2.149,0,0,0-2.018,1.43,2.628,2.628,0,0,0-.131.952V21.8H10.074s.051-10.656,0-11.759h3.934v1.667a3.906,3.906,0,0,1,3.544-1.944c2.589,0,4.531,1.68,4.531,5.293V21.8Zm-8.1-10.055c.007-.011.016-.024.025-.037v.037Z" transform="translate(3812.998 3759.955)"/>
  </g>
</svg>
