<svg xmlns="http://www.w3.org/2000/svg" xmlns:xlink="http://www.w3.org/1999/xlink" viewBox="0 0 54.898 54.898"><defs><style>.a{fill:url(#a);}.b{fill:#fff;}</style><linearGradient id="a" x1="0.5" x2="0.5" y2="1" gradientUnits="objectBoundingBox"><stop offset="0" stop-color="#fbc851"/><stop offset="1" stop-color="#f59504"/></linearGradient></defs><g transform="translate(-341.242 -691)"><circle class="a" cx="27.449" cy="27.449" r="27.449" transform="translate(341.242 691)"/><g transform="translate(357.871 704.001)"><path class="b" d="M172.155,71.837a6.272,6.272,0,1,1,1.785-12.285.7.7,0,1,1-.4,1.336,4.878,4.878,0,1,0,3.289,3.292.7.7,0,1,1,1.337-.394,6.273,6.273,0,0,1-6.015,8.051Z" transform="translate(-161.58 -55.161)"/><path class="b" d="M303.145,84.137a.7.7,0,0,1-.493-.2l-.012-.012a.7.7,0,0,1,.985-.986l.012.012a.7.7,0,0,1-.493,1.19Z" transform="translate(-288.617 -76.965)"/><path class="b" d="M161.275,330.376a.7.7,0,0,1-.183-1.369l.048-.011a.7.7,0,1,1,.135,1.381Z" transform="translate(-156.645 -306.054)"/><path class="b" d="M114.727,328.608c-5.259,0-10.583-1.37-10.583-3.99,0-.661.364-1.628,2.1-2.476a.7.7,0,0,1,.613,1.252c-.825.4-1.317.861-1.317,1.225,0,.4.634,1.072,2.419,1.667a25.142,25.142,0,0,0,13.541,0c1.785-.595,2.419-1.27,2.419-1.667,0-.824-2.423-2.154-6.973-2.511a.7.7,0,1,1,.109-1.389c3.81.3,8.258,1.5,8.258,3.9C125.311,327.237,119.987,328.608,114.727,328.608Z" transform="translate(-104.144 -298.364)"/><path class="b" d="M119.02,26.48a.7.7,0,0,1-.549-.268L111.1,16.763q-.019-.024-.036-.05a10.252,10.252,0,1,1,15.928-.01l-.008.01-7.411,9.5A.7.7,0,0,1,119.02,26.48ZM112.244,15.97l6.776,8.681,6.845-8.774.025-.033a8.858,8.858,0,1,0-13.7.046A.706.706,0,0,1,112.244,15.97Z" transform="translate(-108.446)"/></g></g></svg>