<svg xmlns="http://www.w3.org/2000/svg" xmlns:xlink="http://www.w3.org/1999/xlink" viewBox="0 0 54.341 54.341"><defs><style>.a{fill:url(#a);}.b{fill:#fff;}</style><linearGradient id="a" x1="0.5" x2="0.5" y2="1" gradientUnits="objectBoundingBox"><stop offset="0" stop-color="#dc429a"/><stop offset="1" stop-color="#4f216e"/></linearGradient></defs><g transform="translate(-977.738 -691)"><path class="a" d="M27.171,0A27.171,27.171,0,1,1,0,27.171,27.171,27.171,0,0,1,27.171,0Z" transform="translate(977.738 691)"/><g transform="translate(989.82 703.122)"><path class="b" d="M17.138,43.093h-.344V40.3a.6.6,0,0,0-.6-.6h-.051V34a.6.6,0,0,0-.331-.535L11.183,31.15a.6.6,0,0,0-.866.535v8.021h-.051a.6.6,0,0,0-.6.6v2.788H9.322a.6.6,0,0,0-.6.6V59.4a.6.6,0,0,0,.6.6h7.815a.6.6,0,0,0,.6-.6V43.691A.6.6,0,0,0,17.138,43.093ZM11.513,32.654l3.434,1.717v5.335H11.513Zm-.65,8.249H15.6v2.19H10.864Zm5.676,17.9H9.921V44.289h6.618Z" transform="translate(-8.724 -28.607)"/><path class="b" d="M146.135,304.276H126.7a.6.6,0,1,0,0,1.2h18.484l-.137.284a4.564,4.564,0,0,1-4.091,2.571H126.7a.6.6,0,1,0,0,1.2h14.256a5.767,5.767,0,0,0,5.169-3.249l.55-1.142a.6.6,0,0,0-.539-.858Z" transform="translate(-116.736 -280)"/><path class="b" d="M104.693,4.4a12.041,12.041,0,1,1,15.892,18.084.6.6,0,1,0,.767.918A13.238,13.238,0,1,0,103.88,3.522a.6.6,0,1,0,.813.878Z" transform="translate(-96.112 0)"/><path class="b" d="M117.535,32.391a9.552,9.552,0,1,1-6.4,16.647.6.6,0,1,0-.8.889,10.748,10.748,0,1,0-1.465-14.349.6.6,0,0,0,.964.709A9.6,9.6,0,0,1,117.535,32.391Z" transform="translate(-100.775 -28.705)"/><path class="b" d="M173.327,104.813l-10.92,10.92a.6.6,0,0,0,.846.846l10.92-10.92a.6.6,0,1,0-.846-.846Z" transform="translate(-149.985 -96.289)"/><path class="b" d="M204.085,148.045a.6.6,0,0,0,.846.846l8.2-8.2a.6.6,0,1,0-.846-.846Z" transform="translate(-188.338 -128.528)"/></g></g></svg>