<svg xmlns="http://www.w3.org/2000/svg" xmlns:xlink="http://www.w3.org/1999/xlink" viewBox="0 0 54.898 54.898"><defs><style>.a{fill:url(#a);}.b,.c{fill:#fff;}.c{font-size:9px;font-family:Montserrat-Medium, Montserrat;font-weight:500;}</style><linearGradient id="a" x1="0.5" x2="0.5" y2="1" gradientUnits="objectBoundingBox"><stop offset="0" stop-color="#42a4dc"/><stop offset="1" stop-color="#4539b5"/></linearGradient></defs><g transform="translate(-594.619 -691)"><circle class="a" cx="27.449" cy="27.449" r="27.449" transform="translate(594.619 691)"/><g transform="translate(606.443 704.001)"><g transform="translate(0)"><path class="b" d="M28.868,15.593a3.649,3.649,0,0,1-3.153-1.816,3.645,3.645,0,0,1-6.306,0,3.644,3.644,0,0,1-6.3,0,3.647,3.647,0,0,1-6.308,0A3.645,3.645,0,0,1,0,11.95V7.1a.508.508,0,0,1,.033-.179L2.362.953A.493.493,0,0,1,2.821.64H29.692a.493.493,0,0,1,.459.313L32.48,6.919a.487.487,0,0,1,.034.179V11.95A3.649,3.649,0,0,1,28.868,15.593Zm-3.152-4.136a.493.493,0,0,1,.493.493,2.66,2.66,0,0,0,5.32,0V7.191L29.357,1.625H3.158L.985,7.191V11.95a2.66,2.66,0,0,0,5.319,0,.493.493,0,0,1,.985,0,2.661,2.661,0,0,0,5.322,0,.493.493,0,1,1,.985,0,2.66,2.66,0,0,0,5.319,0,.493.493,0,1,1,.985,0,2.66,2.66,0,0,0,5.32,0A.494.494,0,0,1,25.717,11.457Z" transform="translate(0 -0.64)"/><path class="b" d="M28.008,32.166H4.579a2.144,2.144,0,0,1-2.142-2.142V19.644a.493.493,0,0,1,.985,0V30.024a1.158,1.158,0,0,0,1.157,1.157H28.008a1.158,1.158,0,0,0,1.158-1.157V19.644a.493.493,0,0,1,.985,0V30.024A2.146,2.146,0,0,1,28.008,32.166Z" transform="translate(-0.036 -2.938)"/></g><text class="c" transform="translate(16.556 23.999)"><tspan x="-9.832" y="0">new</tspan></text></g></g></svg>