<svg xmlns="http://www.w3.org/2000/svg" viewBox="0 0 11.565 21.39">
  <defs>
    <style>
      .cls-1 {
        fill: #2e2e2e;
      }
    </style>
  </defs>
  <g id="facebook-logo_1_" data-name="facebook-logo (1)" transform="translate(-1048 -562.609)">
    <path id="Path_250" data-name="Path 250" class="cls-1" d="M33.206,0,30.432,0C27.316,0,25.3,2.066,25.3,5.264V7.691H22.513a.436.436,0,0,0-.436.436v3.517a.436.436,0,0,0,.436.436H25.3v8.874a.436.436,0,0,0,.436.436h3.639a.436.436,0,0,0,.436-.436V12.081h3.261a.436.436,0,0,0,.436-.436V8.128a.436.436,0,0,0-.436-.436H29.813V5.634c0-.989.236-1.491,1.524-1.491h1.869a.436.436,0,0,0,.436-.436V.441A.436.436,0,0,0,33.206,0Z" transform="translate(1025.923 562.61)"/>
  </g>
</svg>
