<svg xmlns="http://www.w3.org/2000/svg" viewBox="0 0 27.334 21.752">
  <defs>
    <style>
      .cls-1 {
        fill: #2e2e2e;
      }
    </style>
  </defs>
  <g id="Symbol_45_2" data-name="Symbol 45 – 2" transform="translate(-1120.666 -562.248)">
    <path id="Path_263" data-name="Path 263" class="cls-1" d="M75.464,120.939l-9.748,8.037a.23.23,0,0,1-.009.051.232.232,0,0,0-.009.051v8.138a1.1,1.1,0,0,0,1.085,1.085h6.51v-6.51h4.341V138.3h6.51a1.1,1.1,0,0,0,1.085-1.086v-8.138a.239.239,0,0,0-.017-.1Z" transform="translate(1058.87 445.7)"/>
    <path id="Path_264" data-name="Path 264" class="cls-1" d="M27.144,57.59,23.432,54.5V47.588a.523.523,0,0,0-.543-.542H19.634a.522.522,0,0,0-.543.542v3.306l-4.137-3.459a2.1,2.1,0,0,0-2.577,0L.188,57.59A.492.492,0,0,0,0,57.955a.549.549,0,0,0,.119.4l1.051,1.255a.578.578,0,0,0,.356.187.63.63,0,0,0,.407-.119l11.732-9.783L25.4,59.676a.522.522,0,0,0,.356.118h.051a.579.579,0,0,0,.356-.186l1.051-1.254a.549.549,0,0,0,.118-.4A.494.494,0,0,0,27.144,57.59Z" transform="translate(1120.667 515.254)"/>
  </g>
</svg>
