<svg xmlns="http://www.w3.org/2000/svg" viewBox="0 0 314.742 62.524">
  <defs>
    <style>
      .cls-1 {
        fill: #fff;
      }
    </style>
  </defs>
  <g id="LOGO_WEB" data-name="LOGO WEB" transform="translate(-150.227 -2044.476)">
    <g id="XMLID_2_" transform="translate(150.227 2044.476)">
      <g id="XMLID_3_">
        <path id="XMLID_37_" class="cls-1" d="M30.934,60.014,10.876,51.853,2.3,31.934l8.161-20.057.138-.138L30.38,3.3l20.057,8.161L58.876,31.38,50.715,51.438l-.138.138ZM11.568,51.023l19.366,7.746,19.089-8.161,7.746-19.366L49.746,12.291,30.38,4.545,11.291,12.568,3.545,31.934Z" transform="translate(0.743 -0.395)"/>
        <circle id="XMLID_36_" class="cls-1" cx="2.213" cy="2.213" r="2.213" transform="translate(34.997 15.078)"/>
        <circle id="XMLID_35_" class="cls-1" cx="2.213" cy="2.213" r="2.213" transform="translate(23.516 15.216)"/>
        <circle id="XMLID_34_" class="cls-1" cx="2.213" cy="2.213" r="2.213" transform="translate(15.354 23.377)"/>
        <circle id="XMLID_33_" class="cls-1" cx="2.213" cy="2.213" r="2.213" transform="translate(15.354 34.72)"/>
        <circle id="XMLID_32_" class="cls-1" cx="2.213" cy="2.213" r="2.213" transform="translate(23.654 42.882)"/>
        <circle id="XMLID_31_" class="cls-1" cx="2.213" cy="2.213" r="2.213" transform="translate(34.997 42.882)"/>
        <circle id="XMLID_30_" class="cls-1" cx="2.213" cy="2.213" r="2.213" transform="translate(43.297 34.72)"/>
        <circle id="XMLID_29_" class="cls-1" cx="2.213" cy="2.213" r="2.213" transform="translate(43.297 23.239)"/>
        <circle id="XMLID_28_" class="cls-1" cx="4.15" cy="4.15" r="4.15" transform="translate(27.251 26.836)"/>
        <circle id="XMLID_27_" class="cls-1" cx="3.597" cy="3.597" r="3.597" transform="translate(47.585 8.023)"/>
        <circle id="XMLID_26_" class="cls-1" cx="3.597" cy="3.597" r="3.597" transform="translate(55.608 27.527)"/>
        <circle id="XMLID_25_" class="cls-1" cx="3.597" cy="3.597" r="3.597" transform="translate(47.585 47.17)"/>
        <circle id="XMLID_24_" class="cls-1" cx="3.597" cy="3.597" r="3.597" transform="translate(28.08 55.331)"/>
        <circle id="XMLID_23_" class="cls-1" cx="3.597" cy="3.597" r="3.597" transform="translate(8.438 47.446)"/>
        <circle id="XMLID_22_" class="cls-1" cx="3.597" cy="3.597" r="3.597" transform="translate(0 27.942)"/>
        <circle id="XMLID_21_" class="cls-1" cx="3.597" cy="3.597" r="3.597" transform="translate(8.023 8.3)"/>
        <circle id="XMLID_20_" class="cls-1" cx="3.597" cy="3.597" r="3.597" transform="translate(27.527)"/>
        <path id="XMLID_19_" class="cls-1" d="M14.425,23.609,8.2,9.5l14.663,5.671-.138.415L9.03,10.33l5.81,13.141Z" transform="translate(3.005 1.981)"/>
        <path id="XMLID_16_" class="cls-1" d="M24.41,32.072,18.6,17.686v-.138L24.686,3.3l5.948,14.663ZM19.153,17.686l5.395,13.279,5.671-13L24.686,4.545Z" transform="translate(6.991 -0.395)"/>
        <path id="XMLID_15_" class="cls-1" d="M35.261,23.986l-.415-.138,5.81-13.418L27.377,15.686l-.277-.415L41.486,9.6Z" transform="translate(10.248 2.02)"/>
        <path id="XMLID_12_" class="cls-1" d="M36.509,31.434h0L22.4,25.21,36.786,19.4h.138l14.248,5.948Zm-13-6.086,13,5.671,13.418-5.533L36.786,19.953Z" transform="translate(8.447 5.776)"/>
        <path id="XMLID_11_" class="cls-1" d="M41.224,41.948,26.7,36l.138-.415,13.556,5.533L34.861,27.977l.415-.277Z" transform="translate(10.095 8.957)"/>
        <path id="XMLID_8_" class="cls-1" d="M24.586,51.934,18.5,37.409,24.586,23.3l5.948,14.386ZM18.915,37.409l5.671,13.418,5.395-13.279L24.586,24.407Z" transform="translate(6.952 7.27)"/>
        <path id="XMLID_7_" class="cls-1" d="M8.6,42.263,14.41,27.6l.415.277L9.43,41.433l13.141-5.671.138.415Z" transform="translate(3.158 8.918)"/>
        <path id="XMLID_4_" class="cls-1" d="M16.886,31.334h0L2.5,25.663,17.024,19.3h.138l14.109,5.81ZM3.607,25.663,16.886,30.92l13.141-5.671L16.886,19.853Z" transform="translate(0.82 5.737)"/>
      </g>
    </g>
    <g id="XMLID_95_" transform="translate(230.227 2063.611)">
      <path id="XMLID_112_" class="cls-1" d="M76.046,19.886a3.018,3.018,0,0,1-.553.692,1.169,1.169,0,0,1-.83.277,1.966,1.966,0,0,1-.83-.277,8.213,8.213,0,0,0-1.107-.553,14.351,14.351,0,0,0-1.383-.553,7.008,7.008,0,0,0-1.8-.277,4.107,4.107,0,0,0-2.49.692,2.512,2.512,0,0,0-.83,1.937,1.348,1.348,0,0,0,.553,1.245,2.352,2.352,0,0,0,1.383.83,15.029,15.029,0,0,0,1.937.692c.83.277,1.383.415,2.213.692.692.277,1.383.553,2.213.968a9.818,9.818,0,0,1,1.937,1.383,9.819,9.819,0,0,1,1.383,1.937,8.185,8.185,0,0,1,.553,2.767,9.631,9.631,0,0,1-.692,3.458,7.371,7.371,0,0,1-1.8,2.767,7.9,7.9,0,0,1-2.9,1.8,11.566,11.566,0,0,1-4.011.692,15.242,15.242,0,0,1-2.49-.277,16.725,16.725,0,0,1-2.49-.692A11.029,11.029,0,0,1,61.8,38.976,8.88,8.88,0,0,1,60,37.592l1.8-2.9a1.08,1.08,0,0,1,.553-.553,1.754,1.754,0,0,1,.83-.138,3.255,3.255,0,0,1,1.107.277c.415.277.83.415,1.245.692a4.616,4.616,0,0,0,1.66.692,4.725,4.725,0,0,0,2.075.277,4.921,4.921,0,0,0,2.628-.692,3.1,3.1,0,0,0,.968-2.352,2.08,2.08,0,0,0-.553-1.522,3.531,3.531,0,0,0-1.383-.968c-.553-.277-1.107-.415-1.8-.692a12.172,12.172,0,0,1-2.075-.692l-2.075-.83a4.494,4.494,0,0,1-1.8-1.383A7.753,7.753,0,0,1,61.8,24.728a9.2,9.2,0,0,1-.553-3.043,7.224,7.224,0,0,1,.553-2.9,6.4,6.4,0,0,1,1.8-2.49,9.551,9.551,0,0,1,2.767-1.8,10.764,10.764,0,0,1,3.873-.692,13.421,13.421,0,0,1,2.352.138,10.362,10.362,0,0,1,2.213.553c.692.277,1.383.553,1.937.83a11.537,11.537,0,0,1,1.66,1.107Z" transform="translate(-60 -13.8)"/>
      <path id="XMLID_110_" class="cls-1" d="M98.776,14.3V19H87.986V25.09h8.3v4.426h-8.3v6.225h10.79v4.7H81.9V14.3Z" transform="translate(-51.606 -13.608)"/>
      <path id="XMLID_108_" class="cls-1" d="M105.673,14.438c.138,0,.277.138.553.138.138,0,.277.138.415.277a1.91,1.91,0,0,1,.415.553l12.449,15.769c0-.553-.138-.968-.138-1.522V14.438h5.395V40.582h-3.182a4.039,4.039,0,0,1-1.245-.277,2.592,2.592,0,0,1-.968-.83L107.056,23.845a4.706,4.706,0,0,0,.138,1.383V40.444H101.8V14.3h3.182A1.037,1.037,0,0,1,105.673,14.438Z" transform="translate(-43.979 -13.608)"/>
      <path id="XMLID_105_" class="cls-1" d="M136.1,30.116V40.352h-1.8V14.9h6.5c3.043,0,5.256.692,6.778,1.937a6.813,6.813,0,0,1,2.213,5.533,10.791,10.791,0,0,1-.553,3.043,5.129,5.129,0,0,1-1.8,2.352,6.494,6.494,0,0,1-2.9,1.522,10.6,10.6,0,0,1-3.735.553h-4.7Zm0-1.522h4.7a10.787,10.787,0,0,0,3.043-.415,5.77,5.77,0,0,0,2.213-1.245A6.235,6.235,0,0,0,147.441,25a6.607,6.607,0,0,0,.553-2.49,5.749,5.749,0,0,0-1.8-4.565c-1.245-1.107-3.043-1.522-5.395-1.522h-4.7Z" transform="translate(-31.523 -13.378)"/>
      <path id="XMLID_102_" class="cls-1" d="M176.607,27.741a16.961,16.961,0,0,1-.83,5.395,11.475,11.475,0,0,1-2.49,4.15,10.7,10.7,0,0,1-3.873,2.628,14.5,14.5,0,0,1-4.98.968,10.822,10.822,0,0,1-4.841-.968,10.7,10.7,0,0,1-3.873-2.628,10.418,10.418,0,0,1-2.49-4.15,16.363,16.363,0,0,1-.83-5.395,16.961,16.961,0,0,1,.83-5.395,11.475,11.475,0,0,1,2.49-4.15,10.7,10.7,0,0,1,3.873-2.628,11.653,11.653,0,0,1,4.841-.968,11.856,11.856,0,0,1,4.98.968,10.7,10.7,0,0,1,3.873,2.628,10.418,10.418,0,0,1,2.49,4.15A22.025,22.025,0,0,1,176.607,27.741Zm-1.937,0a17.785,17.785,0,0,0-.692-4.841,12.919,12.919,0,0,0-2.075-3.6,7.373,7.373,0,0,0-3.182-2.213,10.79,10.79,0,0,0-8.3,0,8.773,8.773,0,0,0-3.182,2.213,8.5,8.5,0,0,0-2.075,3.6,13.227,13.227,0,0,0-.692,4.841,17.785,17.785,0,0,0,.692,4.841,12.919,12.919,0,0,0,2.075,3.6,8.291,8.291,0,0,0,3.182,2.213,10.79,10.79,0,0,0,8.3,0,8.773,8.773,0,0,0,3.182-2.213,12.919,12.919,0,0,0,2.075-3.6A17.785,17.785,0,0,0,174.671,27.741Z" transform="translate(-24.585 -13.493)"/>
      <path id="XMLID_100_" class="cls-1" d="M181.2,40.352h-1.8V14.9h1.8Z" transform="translate(-14.237 -13.378)"/>
      <path id="XMLID_98_" class="cls-1" d="M194.683,14.9c.138,0,.138.138.277.277l16.461,21.994V14.9h1.66V40.352h-.83a.761.761,0,0,1-.692-.415L194.96,17.8V40.214H193.3V14.9h1.383Z" transform="translate(-8.909 -13.378)"/>
      <path id="XMLID_96_" class="cls-1" d="M235.181,14.9v1.522H226.19V40.352h-1.8V16.422H215.4V14.9Z" transform="translate(-0.439 -13.378)"/>
    </g>
  </g>
</svg>
