<svg xmlns="http://www.w3.org/2000/svg" viewBox="0 0 38.093 26.809">
  <defs>
    <style>
      .cls-1 {
        fill: #dfdbdb;
      }
    </style>
  </defs>
  <g id="youtube" transform="translate(-3910 -3759.191)">
    <path id="XMLID_823_" class="cls-1" d="M36.609,48.218c-1.375-1.635-3.914-2.3-8.762-2.3h-17.6c-4.959,0-7.541.71-8.911,2.45C0,50.064,0,52.564,0,56.024v6.595c0,6.7,1.585,10.107,10.247,10.107h17.6c4.2,0,6.534-.588,8.042-2.031,1.546-1.479,2.205-3.894,2.205-8.076V56.024C38.093,52.375,37.99,49.86,36.609,48.218ZM24.456,60.232l-7.992,4.177a1.229,1.229,0,0,1-1.8-1.089V54.993a1.229,1.229,0,0,1,1.8-1.09l7.992,4.15a1.229,1.229,0,0,1,0,2.18Z" transform="translate(3910 3713.274)"/>
  </g>
</svg>
